<?xml version="1.0" standalone="no"?><!DOCTYPE svg PUBLIC "-//W3C//DTD SVG 1.1//EN" "http://www.w3.org/Graphics/SVG/1.1/DTD/svg11.dtd"><svg t="1562052778250" class="icon" viewBox="0 0 1024 1024" version="1.1" xmlns="http://www.w3.org/2000/svg" p-id="1975" xmlns:xlink="http://www.w3.org/1999/xlink" width="200" height="200"><defs><style type="text/css"></style></defs><path d="M196.923077 157.538462a39.384615 39.384615 0 0 0-39.384615 39.384615v630.153846a39.384615 39.384615 0 0 0 39.384615 39.384615h630.153846a39.384615 39.384615 0 0 0 39.384615-39.384615V196.923077a39.384615 39.384615 0 0 0-39.384615-39.384615H196.923077z m259.387077 452.923076l-126.306462-126.306461a19.692308 19.692308 0 0 0-27.844923 27.844923l139.224616 139.264a19.652923 19.652923 0 0 0 14.926769 5.710769 19.652923 19.652923 0 0 0 14.926769-5.710769l250.604308-250.643692a19.692308 19.692308 0 0 0-27.844923-27.884308L456.310154 610.461538zM196.923077 118.153846h630.153846a78.769231 78.769231 0 0 1 78.769231 78.769231v630.153846a78.769231 78.769231 0 0 1-78.769231 78.769231H196.923077a78.769231 78.769231 0 0 1-78.769231-78.769231V196.923077a78.769231 78.769231 0 0 1 78.769231-78.769231z" p-id="1976"></path></svg>