<?xml version="1.0" standalone="no"?><!DOCTYPE svg PUBLIC "-//W3C//DTD SVG 1.1//EN" "http://www.w3.org/Graphics/SVG/1.1/DTD/svg11.dtd"><svg t="1562053051943" class="icon" viewBox="0 0 1024 1024" version="1.1" xmlns="http://www.w3.org/2000/svg" p-id="2102" xmlns:xlink="http://www.w3.org/1999/xlink" width="200" height="200"><defs><style type="text/css"></style></defs><path d="M969.142857 1024H54.857143a54.857143 54.857143 0 0 1-54.857143-54.857143V54.857143a54.857143 54.857143 0 0 1 54.857143-54.857143h914.285714a54.857143 54.857143 0 0 1 54.857143 54.857143v914.285714a54.857143 54.857143 0 0 1-54.857143 54.857143zM950.857143 128a54.857143 54.857143 0 0 0-54.857143-54.857143H128a54.857143 54.857143 0 0 0-54.857143 54.857143v768a54.857143 54.857143 0 0 0 54.857143 54.857143h768a54.857143 54.857143 0 0 0 54.857143-54.857143V128z" fill="#8a8a8a" p-id="2103" data-spm-anchor-id="a313x.7781069.0.i1" class="selected"></path></svg>